<svg width="25" height="15" viewBox="0 0 25 15" fill="none" xmlns="http://www.w3.org/2000/svg">
<path fill-rule="evenodd" clip-rule="evenodd" d="M24.1164 1.29834C24.2824 0.752342 24.1164 0.350342 23.3214 0.350342H20.6964C20.0284 0.350342 19.7204 0.697342 19.5534 1.08034C19.5534 1.08034 18.2184 4.27634 16.3274 6.35234C15.7154 6.95434 15.4374 7.14534 15.1034 7.14534C14.9364 7.14534 14.6854 6.95434 14.6854 6.40734V1.29834C14.6854 0.642342 14.5014 0.350342 13.9454 0.350342H9.81738C9.40038 0.350342 9.14938 0.654342 9.14938 0.943342C9.14938 1.56434 10.0954 1.70834 10.1924 3.45634V7.25434C10.1924 8.08734 10.0394 8.23834 9.70538 8.23834C8.81538 8.23834 6.65038 5.02734 5.36538 1.35334C5.11638 0.638342 4.86438 0.350342 4.19338 0.350342H1.56638C0.816382 0.350342 0.666382 0.697342 0.666382 1.08034C0.666382 1.76234 1.55638 5.15034 4.81138 9.63134C6.98138 12.6913 10.0364 14.3503 12.8194 14.3503C14.4884 14.3503 14.6944 13.9823 14.6944 13.3473V11.0343C14.6944 10.2973 14.8524 10.1503 15.3814 10.1503C15.7714 10.1503 16.4384 10.3423 17.9964 11.8173C19.7764 13.5663 20.0694 14.3503 21.0714 14.3503H23.6964C24.4464 14.3503 24.8224 13.9823 24.6064 13.2543C24.3684 12.5303 23.5184 11.4793 22.3914 10.2323C21.7794 9.52234 20.8614 8.75734 20.5824 8.37434C20.1934 7.88334 20.3044 7.66434 20.5824 7.22734C20.5824 7.22734 23.7824 2.80134 24.1154 1.29834H24.1164Z" fill="#83B3D3"/>
</svg>
