<svg width="115" height="34" viewBox="0 0 115 34" fill="none" xmlns="http://www.w3.org/2000/svg">
<path d="M0 13.7503V16.3503H2.5V13.7503H0Z" fill="black"/>
<path d="M11.6 5.35034C10 5.35034 8.8 6.05034 8 7.05034H7.9V0.850342H5.9V16.3503H7.9V11.0503C7.9 8.95034 9.2 7.45034 11.2 7.45034C13 7.45034 14.1 8.85034 14.1 10.6503V16.3503H16.1V10.2503C16.2 7.25034 14.3 5.35034 11.6 5.35034Z" fill="black"/>
<path d="M26.6 5.65034H21.8V1.95034H19.8V5.75034H17.9V7.75034H19.8V13.7503C19.8 15.4503 20.8 16.4503 22.5 16.4503H26.6V14.4503H22.9C22.2 14.4503 21.8 14.0503 21.8 13.3503V7.65034H26.6V5.65034Z" fill="black"/>
<path d="M41.1 5.45034C39.5 5.45034 38.2 6.25034 37.6 7.55034H37.5C36.9 6.35034 35.7 5.45034 34.1 5.45034C32.7 5.45034 31.6 6.25034 31 7.25034H30.9V5.65034H29V16.2503H31V10.8503C31 8.85034 32 7.35034 33.6 7.35034C35.1 7.35034 36 8.35034 36 9.95034V16.2503H38V10.6503C38 8.25034 39.4 7.35034 40.6 7.35034C42.1 7.35034 43 8.35034 43 9.95034V16.2503H45V9.75034C45.1 7.25034 43.6 5.45034 41.1 5.45034Z" fill="black"/>
<path d="M47.8 13.5503C47.8 15.2503 48.8 16.2503 50.6 16.2503H52.6V14.2503H50.9C50.2 14.2503 49.8 13.8503 49.8 13.1503V0.850342H47.8V13.5503Z" fill="black"/>
<path d="M28.9 20.5503C28 19.4503 26.7 18.7503 25 18.7503C21.9 18.7503 19.6 21.0503 19.6 24.3503C19.6 27.6503 21.9 29.9503 25 29.9503C26.8 29.9503 28 29.1503 28.8 28.0503H28.9V29.6503H30.9V19.0503H28.9V20.5503ZM25.3 27.9503C23.1 27.9503 21.7 26.3503 21.7 24.3503C21.7 22.3503 23.1 20.7503 25.3 20.7503C27.5 20.7503 28.9 22.3503 28.9 24.3503C28.9 26.2503 27.5 27.9503 25.3 27.9503Z" fill="black"/>
<path d="M44.2 22.8503C43.7 20.4503 41.6 18.7503 38.8 18.7503C35.4 18.7503 33.2 21.2503 33.2 24.3503C33.2 27.4503 35.4 29.9503 38.8 29.9503C41.6 29.9503 43.7 28.1503 44.2 25.7503H42.1C41.7 27.0503 40.4 28.0503 38.8 28.0503C36.6 28.0503 35.2 26.4503 35.2 24.4503C35.2 22.4503 36.6 20.8503 38.8 20.8503C40.4 20.8503 41.6 21.8503 42.1 23.0503H44.2V22.8503Z" fill="black"/>
<path d="M55.1 20.5503C54.2 19.4503 52.9 18.7503 51.2 18.7503C48.1 18.7503 45.8 21.0503 45.8 24.3503C45.8 27.6503 48.1 29.9503 51.2 29.9503C53 29.9503 54.2 29.1503 55 28.0503H55.1V29.6503H57.1V19.0503H55.1V20.5503ZM51.5 27.9503C49.3 27.9503 47.9 26.3503 47.9 24.3503C47.9 22.3503 49.3 20.7503 51.5 20.7503C53.7 20.7503 55.1 22.3503 55.1 24.3503C55.1 26.2503 53.6 27.9503 51.5 27.9503Z" fill="black"/>
<path d="M68.7 20.6503C67.8 19.5503 66.5 18.7503 64.8 18.7503C61.7 18.7503 59.4 21.0503 59.4 24.3503C59.4 27.6503 61.6 29.9503 64.8 29.9503C66.5 29.9503 67.8 29.1503 68.6 28.1503H68.7V29.6503H70.7V14.2503H68.7V20.6503ZM65.1 27.9503C62.9 27.9503 61.5 26.3503 61.5 24.3503C61.5 22.3503 62.9 20.7503 65.1 20.7503C67.3 20.7503 68.7 22.3503 68.7 24.3503C68.6 26.3503 67.2 27.9503 65.1 27.9503Z" fill="black"/>
<path d="M78.3 18.7503C75 18.7503 72.8 21.2503 72.8 24.3503C72.8 27.3503 74.9 29.9503 78.3 29.9503C80.8 29.9503 82.8 28.6503 83.5 26.3503H81.4C80.9 27.3503 79.8 27.9503 78.4 27.9503C76.5 27.9503 75.1 26.6503 75 25.0503H83.8C84 21.4503 81.8 18.7503 78.3 18.7503ZM78.3 20.6503C80 20.6503 81.3 21.6503 81.6 23.2503H75.1C75.4 21.7503 76.6 20.6503 78.3 20.6503Z" fill="black"/>
<path d="M98.2 18.7503C96.6 18.7503 95.3 19.5503 94.6 20.7503H94.5C93.9 19.5503 92.7 18.7503 91.1 18.7503C89.7 18.7503 88.6 19.4503 88 20.5503V19.0503H86.1V29.6503H88.1V24.2503C88.1 22.2503 89.1 20.8503 90.7 20.7503C92.2 20.7503 93.1 21.7503 93.1 23.3503V29.6503H95.1V24.0503C95.1 21.6503 96.5 20.7503 97.7 20.7503C99.2 20.7503 100.1 21.7503 100.1 23.3503V29.6503H102.1V23.1503C102.2 20.5503 100.7 18.7503 98.2 18.7503Z" fill="black"/>
<path d="M109.4 27.8503L105.8 18.9503H103.6L108.4 30.5503C108.1 31.4503 107.7 31.7503 106.7 31.7503H104.2V33.7503H106.7C108.5 33.7503 109.5 32.9503 110.2 31.1503L114.9 18.9503H112.8L109.4 27.8503Z" fill="black"/>
</svg>
